
        <svg xmlns="http://www.w3.org/2000/svg" xmlns:xlink="http://www.w3.org/1999/xlink" version="1.1" width="3315.7894736842104" 
        height="2204.04992436363" viewBox="0 0 3315.7894736842104 2204.04992436363">
			
			<g transform="scale(15.789473684210526) translate(10, 10)">
				<defs id="SvgjsDefs1027"></defs><g id="SvgjsG1028" featureKey="nameGroupContainer" transform="matrix(1,0,0,1,0,0)" fill="#ffffff"><rect xmlns="http://www.w3.org/2000/svg" width="190" height="92" rx="10" ry="10"></rect></g><g id="SvgjsG1029" featureKey="nameFeature-0" transform="matrix(1.8044707017187205,0,0,1.8044707017187205,17.499002464755286,-0.5468368897367313)" fill="#007fff"><path d="M13.027 40.39063 c-6.0547 0 -10.781 -2.9102 -11.641 -8.2031 l6.0547 -1.3867 c0.39063 3.1641 2.7148 4.8047 5.8203 4.8047 c2.3828 0 4.2773 -1.0547 4.2578 -3.4375 c-0.019531 -2.6563 -3.1445 -3.4961 -6.582 -4.5508 c-4.1406 -1.2891 -8.5742 -2.8125 -8.5742 -8.0078 c0 -5.2539 4.2969 -8.2227 9.9609 -8.2227 c4.9609 0 9.9609 2.0117 11.094 7.4219 l-5.6641 1.4063 c-0.52734 -2.8125 -2.4219 -4.043 -5.0781 -4.043 c-2.3633 0 -4.375 0.97656 -4.375 3.3008 c0 2.168 2.7734 2.8906 5.9766 3.8477 c4.2578 1.2891 9.2969 2.9297 9.2969 8.5547 c0 5.9961 -5.0195 8.5156 -10.547 8.5156 z M41.48403125 40.39063 c-8.3008 0 -14.434 -5.6445 -14.434 -14.512 s6.1328 -14.492 14.434 -14.492 c6.2891 0 11.328 3.2227 13.34 8.5742 l-5.4688 1.9922 c-1.25 -3.2813 -4.2383 -5.1758 -7.8711 -5.1758 c-4.8633 0 -8.5938 3.3984 -8.5938 9.1016 s3.7305 9.1211 8.5938 9.1211 c3.6328 0 6.6211 -1.9141 7.8711 -5.1953 l5.4688 1.9922 c-2.0117 5.3516 -7.0508 8.5938 -13.34 8.5938 z M78.5155625 40 l-2.0508 -5.8203 l-11.855 0 l-2.0508 5.8203 l-5.9961 0 l10.391 -28.223 l7.168 0 l10.391 28.223 l-5.9961 0 z M66.3285625 29.277 l8.418 0 l-4.1992 -11.973 z"></path></g><g id="SvgjsG1030" featureKey="sloganFeature-0" transform="matrix(0.42025634380101695,0,0,0.42025634380101695,34.92435438114374,109.73061510221422)" fill="#007fff"><path d="M13.04 15.42 c0 0.4 -0.04 1.24 -0.56 2.2 c-1.22 2.22 -3.76 2.52 -4.44 2.6 c-0.46 0.06 -0.94 0.1 -1.42 0.1 c-2.8 0 -4.38 -0.94 -5.32 -1.7 c-0.38 -0.32 -0.56 -0.52 -1.12 -1.18 l2.68 -1.68 c0.06 0.06 0.34 0.38 0.62 0.6 c0.92 0.76 2.28 1.18 3.46 1.18 c0.16 0 0.64 0 1.1 -0.14 c0.1 -0.02 1.5 -0.42 1.5 -1.5 c0 -1.3 -1.88 -1.34 -3.14 -1.52 c-0.66 -0.08 -1.34 -0.2 -2 -0.36 c-1.02 -0.26 -1.96 -0.64 -2.66 -1.48 c-0.14 -0.16 -0.42 -0.52 -0.6 -1.04 c-0.06 -0.2 -0.18 -0.66 -0.18 -1.24 c0 -0.12 0.02 -0.58 0.08 -0.98 c0.16 -0.9 0.54 -1.62 1.22 -2.26 c0.7 -0.66 2.08 -1.48 4.4 -1.48 c0.86 0 2.74 0.1 4.66 1.4 c0.48 0.32 0.76 0.56 1.56 1.26 l-2.6 1.86 c-0.78 -0.76 -1.32 -1.2 -2.38 -1.54 c-0.18 -0.04 -0.72 -0.2 -1.32 -0.2 c-1.44 0 -2.1 0.84 -2.1 1.5 c0 0.38 0.2 0.64 0.3 0.74 c0.48 0.52 1.26 0.5 2.58 0.7 c0.8 0.12 1.58 0.28 2.36 0.46 c0.5 0.1 2.32 0.46 3.04 2.18 c0.1 0.26 0.28 0.8 0.28 1.52 z M26.2 20 l-11.08 0 l0 -14.12 l10.44 0 l0 2.72 l-6.92 0 l0 2.58 l6.46 0 l0 2.68 l-6.46 0 l0 3.36 l7.56 0 l0 2.78 z M39.12 20 l-11.08 0 l0 -14.12 l10.44 0 l0 2.72 l-6.92 0 l0 2.58 l6.46 0 l0 2.68 l-6.46 0 l0 3.36 l7.56 0 l0 2.78 z M54.24 20 l-3.98 0 l-3.76 -6.4 l-2.18 2.26 l0 4.14 l-3.36 0 l0 -14.12 l3.36 0 l0 5.76 l5.28 -5.76 l4.26 0 l-5 5.24 z M58.74000000000001 19.38 c0 2.36 -0.9 3.48 -3.18 4.08 l0 -1.42 c0.98 -0.36 1.12 -1.1 1.2 -2.04 l-1.22 0 l0 -3.36 l3.2 0 l0 2.74 z M79.12 16.8 c-0.42 0.64 -0.72 1.06 -0.92 1.3 c-0.64 0.72 -2.4 2.32 -5.16 2.32 c-0.5 0 -1.66 -0.06 -2.88 -0.6 c-3.72 -1.68 -3.9 -5.78 -3.9 -6.9 c0 -0.86 0.1 -3.08 1.72 -5.04 c0.64 -0.8 2.24 -2.44 5.12 -2.44 c1.9 0 3.74 0.78 4.98 2.2 c0.52 0.6 0.84 1.22 0.98 1.46 l-2.78 1.38 c-0.2 -0.4 -0.34 -0.62 -0.46 -0.78 c-0.26 -0.38 -1.12 -1.36 -2.56 -1.36 c-0.4 0 -1.34 0.08 -2.14 0.84 c-0.58 0.54 -1.34 1.72 -1.34 3.66 c0 0.18 0 0.52 0.06 0.96 c0.24 1.94 1.08 2.82 1.86 3.26 c0.26 0.16 0.8 0.4 1.56 0.4 c1.98 0 2.74 -1.54 3.06 -2.08 z M93.14000000000001 20 l-3.54 0 l0 -6.02 l-5.16 0 l0 6.02 l-3.56 0 l0 -14.12 l3.58 0 l0 5.1 l5.14 0 l0 -5.1 l3.54 0 l0 14.12 z M108.62 20 l-3.76 0 l-0.7 -2.26 l-5.2 0 l-0.7 2.26 l-3.76 0 l5.24 -14.12 l3.68 0 z M103.36000000000001 15.2 l-1.84 -5.96 l-1.74 5.96 l3.58 0 z M119.08000000000001 20 l-9.04 0 l0 -14.12 l3.52 0 l0 11.14 l5.52 0 l0 2.98 z M129.92000000000002 20 l-9.04 0 l0 -14.12 l3.52 0 l0 11.14 l5.52 0 l0 2.98 z M142.8 20 l-11.08 0 l0 -14.12 l10.44 0 l0 2.72 l-6.92 0 l0 2.58 l6.46 0 l0 2.68 l-6.46 0 l0 3.36 l7.56 0 l0 2.78 z M156.48 20 l-3.46 0 l-5.12 -8.74 l0.12 8.74 l-3.4 0 l0 -14.12 l3.46 0 l5.16 8.86 l-0.14 -8.86 l3.38 0 l0 14.12 z M171.94000000000003 20 l-2.76 0 l0 -1.3 c-0.38 0.34 -0.68 0.58 -0.86 0.7 c-1.32 0.88 -2.74 0.92 -3.3 0.92 c-0.5 0 -1.54 -0.04 -2.72 -0.6 c-2.56 -1.24 -3.64 -4.06 -3.64 -6.78 c0 -1.04 0.2 -4.8 3.48 -6.64 c0.58 -0.34 1.76 -0.9 3.48 -0.9 c2.64 0 4.26 1.24 5 1.9 c0.5 0.44 0.82 0.84 1.22 1.36 l-2.68 1.62 c-0.06 -0.1 -0.46 -0.74 -0.9 -1.12 c-0.9 -0.82 -1.98 -0.86 -2.38 -0.86 c-0.26 0 -1.2 0.02 -1.94 0.5 c-0.84 0.54 -1.76 1.78 -1.76 4.04 c0 0.3 0 2.28 0.98 3.48 c0.36 0.44 0.84 0.68 1.02 0.78 c0.26 0.12 0.9 0.38 1.7 0.38 c0.24 0 0.68 0 1.22 -0.18 c0.28 -0.1 1.14 -0.44 1.56 -1.3 c0.22 -0.44 0.28 -1.04 0.3 -1.16 l-3.16 0 l0 -2.68 l6.14 0 l0 7.84 z M185.3 20 l-11.08 0 l0 -14.12 l10.44 0 l0 2.72 l-6.92 0 l0 2.58 l6.46 0 l0 2.68 l-6.46 0 l0 3.36 l7.56 0 l0 2.78 z M190.82 19.38 c0 2.36 -0.9 3.48 -3.18 4.08 l0 -1.42 c0.98 -0.36 1.12 -1.1 1.2 -2.04 l-1.22 0 l0 -3.36 l3.2 0 l0 2.74 z M211.66 20 l-3.76 0 l-0.7 -2.26 l-5.2 0 l-0.7 2.26 l-3.76 0 l5.24 -14.12 l3.68 0 z M206.4 15.2 l-1.84 -5.96 l-1.74 5.96 l3.58 0 z M225.36 16.8 c-0.42 0.64 -0.72 1.06 -0.92 1.3 c-0.64 0.72 -2.4 2.32 -5.16 2.32 c-0.5 0 -1.66 -0.06 -2.88 -0.6 c-3.72 -1.68 -3.9 -5.78 -3.9 -6.9 c0 -0.86 0.1 -3.08 1.72 -5.04 c0.64 -0.8 2.24 -2.44 5.12 -2.44 c1.9 0 3.74 0.78 4.98 2.2 c0.52 0.6 0.84 1.22 0.98 1.46 l-2.78 1.38 c-0.2 -0.4 -0.34 -0.62 -0.46 -0.78 c-0.26 -0.38 -1.12 -1.36 -2.56 -1.36 c-0.4 0 -1.34 0.08 -2.14 0.84 c-0.58 0.54 -1.34 1.72 -1.34 3.66 c0 0.18 0 0.52 0.06 0.96 c0.24 1.94 1.08 2.82 1.86 3.26 c0.26 0.16 0.8 0.4 1.56 0.4 c1.98 0 2.74 -1.54 3.06 -2.08 z M239.38 20 l-3.54 0 l0 -6.02 l-5.16 0 l0 6.02 l-3.56 0 l0 -14.12 l3.58 0 l0 5.1 l5.14 0 l0 -5.1 l3.54 0 l0 14.12 z M245.62 20 l-3.52 0 l0 -14.12 l3.52 0 l0 14.12 z M259.46 20 l-11.08 0 l0 -14.12 l10.44 0 l0 2.72 l-6.92 0 l0 2.58 l6.46 0 l0 2.68 l-6.46 0 l0 3.36 l7.56 0 l0 2.78 z M273.26 5.880000000000001 l-4.9 14.12 l-3.6 0 l-4.84 -14.12 l3.76 0 l2.92 10.04 l2.9 -10.04 l3.76 0 z M285.71999999999997 20 l-11.08 0 l0 -14.12 l10.44 0 l0 2.72 l-6.92 0 l0 2.58 l6.46 0 l0 2.68 l-6.46 0 l0 3.36 l7.56 0 l0 2.78 z"></path></g>
			</g>
		</svg>
	